<svg viewbox="0 0 24 24" xmlns="http://www.w3.org/2000/svg">
 <g id="Layer_1">
  <path id="svg_1" d="m3.66814,21.64964l4.09374,-6.43749l4.09374,6.43749l-8.18749,0z" stroke-width="2" stroke="currentColor" fill="none"/>
  <path transform="rotate(58, 14.7111, 7.52447)" id="svg_4" d="m15.93297,15.47072c0,0 -0.91468,-0.13417 -1.3991,-0.64709c-0.48441,-0.51293 -0.71047,-1.16691 -0.71047,-1.16691c0,0 0.25422,0.56409 0.61096,0.99149c0.2175,0.26057 0.47312,0.47034 0.73248,0.47034c0,0 -0.40043,-0.4488 -0.70079,-0.12824c0,0 0.21638,-0.29493 0.59099,-0.07052c0.37464,0.2244 0.56192,0.09616 0.56192,0.09616c0,0 -0.63294,-0.00641 -0.90746,-0.36546c-0.27452,-0.35905 -0.34234,-0.56418 -0.34234,-0.56418c0,0 0.2842,0.58345 0.5038,0.65398c0.2196,0.07053 0.59745,-0.01286 0.59745,-0.01286c0,0 -0.39075,0.01927 -0.51349,-0.08976c-0.12271,-0.10897 -0.60713,-0.32697 -0.69431,0.12824c0,0 0.09687,-0.48089 0.5393,-0.33983c0.44243,0.14106 0.48444,0.09621 0.48444,0.09621c0,0 -0.78478,-0.60273 -1.22398,-0.26289c-0.43921,0.33983 -0.41014,0.62835 -0.41014,0.62835c0,0 0.02907,-1.00022 1.10125,-0.82071c0,0 -0.50055,-0.14747 -0.68466,-0.44239c-0.18405,-0.29493 -0.19699,-0.48725 -0.19699,-0.48725c0,0 0.2099,0.63471 0.46828,0.64112c0.25836,0.00645 0.33263,-0.03844 0.33263,-0.03844c0,0 -0.5038,-0.23081 -0.74279,-0.17955c-0.23897,0.05131 -0.62649,0.218 -0.82996,-0.51292c0,0 0.19053,0.69888 0.7105,0.45526c0.51994,-0.24367 0.84609,0.02563 0.84609,0.02563c0,0 -0.78798,-0.30134 -0.94946,-0.60267c-0.16146,-0.30134 -0.18083,-0.82072 -0.18083,-0.82072c0,0 0.06782,0.87197 0.40043,0.95537c0.33266,0.08334 0.83644,0.06407 0.96885,0.36545c0,0 -0.33263,-0.48729 -0.6782,-0.42317c-0.34554,0.06412 -0.87841,0.94891 -1.14968,0.7181c-0.27126,-0.23081 -0.394,-0.03849 -0.394,-0.03849c0,0 0.11305,-0.2244 0.30679,-0.12184c0.19379,0.10262 0.23577,0.25649 0.5684,-0.19872c0.33263,-0.45521 0.89778,-1.01944 1.25626,-0.53219c0,0 -1.67498,-0.92105 -1.8558,-2.7932c0,0 0.15924,1.24825 0.97739,1.80385c0.81817,0.55559 0.86551,0.51293 0.86551,0.51293c0,0 -1.26161,-0.26507 -1.85155,-2.52195c0,0 0.51238,1.75254 1.30902,1.98334c0,0 -0.67174,-0.46161 -1.19278,-1.87214c-0.52097,-1.41058 -0.54258,-1.88083 -0.54258,-1.88083c0,0 0.63304,2.25687 1.83013,2.65873c0,0 -0.93768,-0.53228 -1.6094,-2.23134c-0.67172,-1.69905 -0.4618,-2.03247 -0.4618,-2.03247c0,0 -0.14533,-0.60909 -0.03555,-0.74374c0,0 -0.21638,-0.48729 -0.15501,-0.88479c0,0 0.15501,1.50669 0.94624,2.49409c0.79123,0.98736 0.85905,1.10919 0.85905,1.10919c0,0 -0.8203,-1.1156 -1.07866,-1.6542c-0.25836,-0.53856 -0.54901,-0.95532 -0.71695,-2.10936c0,0 0.16149,1.14123 0.67174,1.92345c0.51023,0.78222 0.61038,0.76936 0.61038,0.76936c0,0 -1.04636,-1.06429 -1.29503,-2.82747c0,0 0.14533,1.30155 1.29826,2.5454c0,0 -1.15616,-1.35286 -1.29826,-2.79547c0,0 -0.02582,-0.21158 0.02261,-0.31415c0,0 -0.05814,-0.27571 -0.03875,-0.62195c0.01936,-0.34619 0.04198,-0.71805 0.04198,-0.71805c0,0 -0.05166,1.46183 0.66527,2.59025c0,0 -0.84612,-2.01334 -0.54466,-3.67172c0,0 -0.06464,0.91473 0.13775,1.33359c0,0 -0.17227,-0.7351 -0.09042,-1.59858c0,0 -0.02156,0.91474 0.19376,1.74395c0.21533,0.82921 0.90426,2.43637 0.90426,2.43637c0,0 -0.80949,-1.88078 -0.93868,-2.9408c-0.12917,-1.06002 -0.05601,-1.75245 -0.05601,-1.75245c0,0 -0.07315,0.99158 0.24117,1.9833c0.31432,0.99168 0.42199,1.10279 0.42199,1.10279c0,0 -0.86555,-1.78676 -0.53832,-3.77001c0,0 -0.02149,2.00893 0.33588,2.87236c0.35745,0.86347 0.46503,0.88911 0.46503,0.88911c0,0 -0.73631,-1.15409 -0.71049,-2.7698c0.02586,-1.61571 0.16371,-1.70119 0.16371,-1.70119c0,0 -0.30578,1.36767 0.18509,2.68427c0.49089,1.3166 0.39187,1.06861 0.39187,1.06861c0,0 -0.69754,-1.79521 -0.55974,-3.19724c0.1378,-1.40203 0.40043,-1.3849 0.40043,-1.3849c0,0 -0.28845,0.37609 -0.27555,1.23952c0.01291,0.86344 0.4263,2.53899 0.4263,2.53899c0,0 -0.46077,-2.29954 -0.33588,-3.00915c0.12484,-0.70956 0.38755,-0.92323 0.38755,-0.92323c0,0 -0.51248,0.58132 -0.21537,2.13722c0,0 -0.18513,-1.47883 0.31002,-2.1713c0,0 -0.35305,0.66684 -0.20667,1.90637c0,0 -0.04306,-1.52178 0.42627,-2.0432c0,0 -0.30134,0.47026 -0.30567,1.41916c0,0 0.0646,-0.95754 0.42195,-1.4961c0,0 -0.27129,0.82067 -0.25403,2.00039c0,0 0.20239,-1.16249 0.30146,-2.01743c0,0 0.01717,0.46166 -0.05601,1.03434c-0.07318,0.57277 -0.10763,0.62403 -0.10763,0.62403c0,0 0.26263,-0.76936 0.27557,-1.52164c0,0 0.01291,0.73524 -0.09902,1.35077c0,0 0.2132,-0.34034 0.24005,-1.09447c0.00042,-0.01124 0.00075,-0.02257 0.00107,-0.03399c0,0 0.06025,1.10269 -0.15936,2.03456c-0.2196,0.93192 -0.32295,1.01735 -0.32295,1.01735c0,0 0.48664,-0.91478 0.55982,-2.17994c0,0 0.00861,0.70946 -0.12056,1.32496c-0.12917,0.61553 -0.26699,1.08579 -0.26699,1.08579c0,0 0.65018,-1.17131 0.54255,-3.27417c0,0 0.12484,1.17108 0.01291,2.06019c-0.11193,0.88911 -0.66316,2.25687 -0.66316,2.25687c0,0 0.85695,-1.50464 0.89568,-3.88971c0,0 0.10335,1.41053 -0.29065,2.69281c0,0 0.58131,-1.30792 0.5684,-2.55176c0,0 0.12919,0.6283 0.01936,1.48747c-0.10978,0.85916 -0.63294,2.87236 -1.17552,3.35966c0,0 1.47263,-1.57727 1.37576,-4.28289c0,0 0.16146,1.23098 -0.03875,2.42356c-0.20022,1.19253 -0.9624,3.01342 -0.9624,3.01342c0,0 1.09156,-2.00039 1.25305,-4.18037c0,0 0.05166,-0.66675 -0.01293,-1.06429c0,0 0.26483,0.23081 0.2842,1.21821c0.01936,0.98736 -0.23897,2.32099 -0.41982,3.25704c-0.18085,0.93609 -0.56837,2.17994 -0.56837,2.17994c0,0 1.25948,-3.82127 1.07861,-5.69346c0,0 0.32297,0.80785 0.2842,1.85938c-0.03873,1.05147 -0.31002,3.97514 -1.0657,5.29592c0,0 0.81382,-1.28229 1.03988,-3.61609c0,0 0.11626,-1.24384 0.09687,-1.9235c0,0 0.16146,1.43621 0.10335,2.51336c-0.05812,1.07715 -0.66527,3.4879 -0.66527,3.4879c0,0 0.66527,-2.01325 0.71047,-3.26991c0,0 0.07105,0.75655 0.01939,1.44902c-0.05166,0.69243 -0.34877,1.98757 -0.6007,2.74412c0,0 0.52965,-1.51309 0.63945,-2.17994c0.1098,-0.6668 0.09042,-1.05148 0.09042,-1.05148c0,0 0.12919,2.07737 -0.0775,3.05191c-0.20669,0.97454 -0.85903,2.42356 -0.90423,3.10317c0,0 0.30356,-1.57722 0.96237,-1.82089c0.65881,-0.24363 1.03342,0.12824 1.03342,0.12824c0,0 -1.00113,-0.64116 -1.53723,0.56423c0,0 -0.27126,0.65398 -0.27774,1.24384c0,0 0.69759,-0.97454 0.80737,-2.30818c0.10982,-1.33359 0.62008,-1.53877 0.62008,-1.53877c0,0 -0.5684,0.42317 -0.56194,1.57727c0.00646,1.15409 -0.6459,2.51331 -0.80091,2.47487c0,0 0.52965,-0.29493 0.71695,-1.17972c0,0 -0.12273,0.8976 -0.38752,1.41694c-0.26483,0.51933 -0.17765,0.74373 -0.17765,0.74373c0,0 0.09044,-0.55777 0.35525,-1.02585c0.26483,-0.46803 0.6136,-1.27588 0.61683,-1.82089c0.00323,-0.54496 0.29065,-1.08997 0.29065,-1.08997c0,0 -0.22606,0.57063 -0.23577,0.98099c-0.00968,0.41031 0.02262,1.05148 -0.35522,1.59008c-0.37786,0.53856 -0.5361,1.50669 -0.52965,1.92986c0,0 0.26376,-1.511 1.03885,-1.81016c0,0 -0.74067,0.29061 -1.0033,1.94913c0,0 0.49084,-1.65843 1.14538,-2.09442c0,0 -0.69756,0.58986 -1.03342,2.03461c0,0 0.19807,-1.02599 0.8181,-1.06865c0,0 -0.51671,0.13674 -0.72766,1.10278c0,0 0.09471,-0.41022 0.44781,-0.55559c0.3531,-0.14538 0.65016,-0.64976 0.57698,-1.12855c0,0 0.09042,0.6667 -0.37029,1.11133c-0.46075,0.44462 -0.65432,1.50927 -0.65432,1.50927c0,0 0.37519,0.70525 0.67853,1.29957c-0.02395,0.33282 -0.10665,0.42439 -0.1836,0.45961c-0.02752,0.01259 -0.66987,-1.42157 -0.70647,-1.45014z" stroke="currentColor" fill="none"/>
 </g>
</svg>
