<svg viewbox="0 0 24 24" xmlns="http://www.w3.org/2000/svg">
 <g id="Layer_1">
  <rect id="svg_1" height="23" width="16" y="0.5" x="4.5" stroke="currentColor" fill="none"/>
  <line id="svg_2" y2="3" x2="7" y1="3" x1="5" stroke-width="0.5" stroke="currentColor" fill="none"/>
  <line stroke-width="0.5" id="svg_3" y2="5" x2="7" y1="5" x1="5" stroke="currentColor" fill="none"/>
  <line id="svg_4" y2="7" x2="7" y1="7" x1="5" stroke-width="0.5" stroke="currentColor" fill="none"/>
  <line id="svg_5" y2="9" x2="7" y1="9" x1="5" stroke-width="0.5" stroke="currentColor" fill="none"/>
  <line id="svg_6" y2="11" x2="7" y1="11" x1="5" stroke-width="0.5" stroke="currentColor" fill="none"/>
  <line id="svg_7" y2="13" x2="7" y1="13" x1="5" stroke-width="0.5" stroke="currentColor" fill="none"/>
  <line id="svg_8" y2="15" x2="7" y1="15" x1="5" stroke-width="0.5" stroke="currentColor" fill="none"/>
  <line id="svg_9" y2="17" x2="7" y1="17" x1="5" stroke-width="0.5" stroke="currentColor" fill="none"/>
  <line id="svg_10" y2="19" x2="7" y1="19" x1="5" stroke-width="0.5" stroke="currentColor" fill="none"/>
  <line id="svg_11" y2="21" x2="7" y1="21" x1="5" stroke-width="0.5" stroke="currentColor" fill="none"/>
  <line stroke-width="0.5" id="svg_12" y2="6" x2="16" y1="1" x1="16" stroke="currentColor" fill="none"/>
  <line stroke-width="0.5" id="svg_13" y2="6" x2="19" y1="1" x1="19" stroke="currentColor" fill="none"/>
  <line id="svg_14" y2="4.0625" x2="17.6" y1="6" x1="15.9" stroke-width="0.5" stroke="currentColor" fill="none"/>
  <line id="svg_15" y2="6" x2="19.1" y1="4" x1="17.4" stroke-width="0.5" stroke="currentColor" fill="none"/>
 </g>
</svg>
